<svg version="1.1" id="Livello_1" xmlns="http://www.w3.org/2000/svg" x="0" y="0" viewBox="0 0 25 25"
    xml:space="preserve">
    <path
        d="M4.365 6.93c-1.007 0-1.827-.82-1.827-1.826s.82-1.827 1.827-1.827 1.826.82 1.826 1.827S5.37 6.93 4.365 6.93zm0-3.371c-.852 0-1.545.693-1.545 1.545s.693 1.545 1.545 1.545S5.91 5.955 5.91 5.104s-.694-1.545-1.545-1.545zM19.114 5.9a.93.93 0 1 1 .93-.93.93.93 0 0 1-.93.93zm0-1.577a.649.649 0 1 0 .002 1.298.649.649 0 0 0-.002-1.298zM21.358 5.9a.93.93 0 1 1 .93-.93.93.93 0 0 1-.93.93zm0-1.577a.649.649 0 1 0 .002 1.298.649.649 0 0 0-.002-1.298z">
    </path>
    <path
        d="M24 5.34v-.99a3.078 3.078 0 0 0-3.075-3.075H4.074A3.078 3.078 0 0 0 1 4.35v.99a3.324 3.324 0 0 0 2.5 3.21v11.183h-.168A2.334 2.334 0 0 0 1 22.065v.516c0 .63.513 1.144 1.143 1.144h20.713c.631 0 1.144-.513 1.144-1.144v-.516a2.334 2.334 0 0 0-2.332-2.332h-.17V8.55A3.324 3.324 0 0 0 24 5.34zm-7.452-3.783v.373a3.037 3.037 0 0 1-3.034 3.033h-2.029A3.037 3.037 0 0 1 8.452 1.93v-.373h8.096zM1.28 5.34v-.99a2.796 2.796 0 0 1 2.793-2.793H8.17v.373a3.318 3.318 0 0 0 3.315 3.314h2.028A3.318 3.318 0 0 0 16.83 1.93v-.373h4.096A2.796 2.796 0 0 1 23.72 4.35v.99a3.05 3.05 0 0 1-3.046 3.046H4.327A3.049 3.049 0 0 1 1.28 5.34zm13.28 3.337v.141a1.6 1.6 0 0 1-1.6 1.599h-.924a1.6 1.6 0 0 1-1.598-1.599v-.141h4.122zm9.158 13.388v.516a.863.863 0 0 1-.862.862H2.143a.863.863 0 0 1-.862-.862v-.516c0-1.13.92-2.051 2.05-2.051h18.337c1.13 0 2.05.92 2.05 2.05zM21.217 8.667v11.066H3.783V8.667h6.375v.151c0 1.036.844 1.88 1.88 1.88h.925c1.037 0 1.88-.843 1.88-1.88v-.15h6.376z">
    </path>
    <path
        d="M12.981 19.665h-.639a2.116 2.116 0 0 1-2.113-2.114V14.46a.14.14 0 0 1 .141-.14h4.584a.14.14 0 0 1 .14.14v3.091a2.116 2.116 0 0 1-2.113 2.114zm-2.47-5.064v2.95c0 1.01.821 1.832 1.831 1.832h.64c1.01 0 1.832-.821 1.832-1.832v-2.95H10.51z">
    </path>
    <path d="M14.954 17.558a.14.14 0 1 1 0-.281 1.028 1.028 0 0 0 0-2.055.14.14 0 1 1 0-.28 1.309 1.309 0 0 1 0 2.616z">
    </path>
</svg>