<svg version="1.1" id="Livello_1" xmlns="http://www.w3.org/2000/svg" x="0" y="0" viewBox="0 0 25 25"
    xml:space="preserve">
    <path
        d="M12.5 19.166a5.547 5.547 0 0 1-5.54-5.541c0-3.055 2.485-5.54 5.54-5.54s5.54 2.485 5.54 5.54a5.547 5.547 0 0 1-5.54 5.541zm0-10.785a5.25 5.25 0 0 0-5.245 5.244A5.25 5.25 0 0 0 12.5 18.87a5.25 5.25 0 0 0 5.244-5.245A5.25 5.25 0 0 0 12.5 8.38z">
    </path>
    <path
        d="M12.5 18.108c-2.472 0-4.483-2.011-4.483-4.483s2.01-4.483 4.483-4.483 4.484 2.011 4.484 4.483-2.011 4.483-4.484 4.483zm0-8.67c-2.309 0-4.187 1.878-4.187 4.187s1.878 4.187 4.187 4.187 4.188-1.878 4.188-4.187-1.879-4.187-4.188-4.187zm5.749-5.041a.915.915 0 0 1-.648-1.562.94.94 0 0 1 1.296 0c.172.172.268.402.268.647s-.094.474-.268.648h-.001a.911.911 0 0 1-.647.267zm0-1.535a.62.62 0 0 0-.437 1.058.635.635 0 0 0 .875 0h.001a.618.618 0 0 0 0-.876.618.618 0 0 0-.44-.182zM15.51 4.397a.913.913 0 0 1-.647-1.562.916.916 0 0 1 1.295 1.295.914.914 0 0 1-.648.267zm0-1.534a.617.617 0 0 0-.62.62.622.622 0 0 0 1.058.438.615.615 0 0 0 .182-.439.618.618 0 0 0-.62-.62zm.543 1.162h.004-.004z">
    </path>
    <path
        d="M20.174 1H4.827c-.702 0-1.273.571-1.273 1.273v21.579c0 .082.066.148.148.148h17.596a.148.148 0 0 0 .148-.148V2.273c0-.702-.57-1.273-1.273-1.273zM3.85 5.96h17.3v16.047H3.85V5.959zm.977-4.664h15.346c.54 0 .977.439.977.978v3.39H3.85v-3.39c0-.54.438-.978.977-.978zM3.85 23.704v-1.401h17.3v1.401H3.85z">
    </path>
    <path
        d="M11.143 4.733H5.592a.148.148 0 0 1-.148-.148v-2.01c0-.081.066-.148.148-.148h5.55a.15.15 0 0 1 .149.148v2.01a.148.148 0 0 1-.148.148zM5.74 4.437h5.255V2.723H5.74v1.714z">
    </path>
</svg>