<svg version="1.1" id="Livello_1" xmlns="http://www.w3.org/2000/svg" x="0" y="0" viewBox="0 0 25 25"
    xml:space="preserve">
    <path
        d="M22.708 8.476H2.292C1.58 8.476 1 9.056 1 9.768v5.464c0 .712.58 1.292 1.292 1.292h20.416c.712 0 1.292-.58 1.292-1.292V9.768c0-.712-.58-1.292-1.292-1.292zm-5.165.253v1.444H7.457V8.729h10.086zM2.292 8.676h4.965v1.597a.1.1 0 0 0 .1.1h10.286a.1.1 0 0 0 .1-.1V8.676h4.965c.602 0 1.092.49 1.092 1.092v3.268H1.2V9.768c0-.602.49-1.092 1.092-1.092zm.792 7.648l.268-1.073h18.296l.268 1.073H3.084zm19.624 0h-.586l-.3-1.197a.1.1 0 0 0-.096-.076H3.274a.1.1 0 0 0-.097.076l-.299 1.197h-.586c-.602 0-1.092-.49-1.092-1.093v-1.995h22.6v1.995c0 .603-.49 1.093-1.092 1.093z">
    </path>
</svg>