<svg version="1.1" id="Livello_1" xmlns="http://www.w3.org/2000/svg" x="0" y="0" viewBox="0 0 25 25" xml:space="preserve"><path fill="#1D1D1B" d="M17.61 23.268c-.883 0-1.714-.444-2.522-.877-.84-.45-1.71-.914-2.656-.914h-.028a.42.42 0 0 1-.068-.003c-.924-.032-1.821.424-2.679.858-1.015.516-2.066 1.046-3.19.726-.858-.247-1.463-.865-1.66-1.695-.332-1.403.506-3.157 2.3-4.814.737-.68 1.302-1.397 1.8-2.03 1.044-1.322 1.867-2.367 3.57-2.394h.008c1.702.064 2.503 1.125 3.518 2.47.485.644 1.035 1.373 1.757 2.069 1.757 1.693 2.558 3.465 2.196 4.86-.214.826-.832 1.43-1.696 1.66-.22.058-.436.084-.65.084zm-5.215-2.094c1.057 0 1.961.483 2.835.95.996.534 1.937 1.037 2.953.767.754-.2 1.294-.725 1.48-1.443.335-1.286-.436-2.952-2.113-4.567-.74-.713-1.297-1.452-1.788-2.104-.966-1.279-1.729-2.29-3.284-2.35-1.556.026-2.34 1.022-3.333 2.28-.506.64-1.079 1.368-1.832 2.064C5.6 18.35 4.795 20 5.1 21.29c.172.722.7 1.26 1.45 1.476 1.01.294 1.962-.191 2.97-.704.89-.452 1.81-.925 2.847-.89h.027zM5.69 15.845c-.37 0-.769-.083-1.18-.247-.897-.358-1.755-1.068-2.417-1.998-1.38-1.94-1.465-4.255-.19-5.162.628-.447 1.48-.49 2.398-.124.897.358 1.754 1.067 2.416 1.998 1.38 1.94 1.465 4.256.19 5.162a2.06 2.06 0 0 1-1.216.37zM3.12 8.37c-.393 0-.748.105-1.042.314-1.139.81-1.022 2.938.262 4.741.628.883 1.438 1.555 2.28 1.892.822.328 1.57.296 2.112-.089 1.139-.81 1.021-2.937-.262-4.741-.628-.884-1.438-1.555-2.28-1.892a2.897 2.897 0 0 0-1.07-.225zm16.119 7.614c-.468 0-.9-.126-1.256-.39-1.255-.935-1.12-3.249.299-5.158.681-.917 1.554-1.608 2.459-1.946.925-.348 1.777-.285 2.394.175.619.46.922 1.256.856 2.243-.064.963-.475 1.997-1.155 2.912-1.017 1.368-2.421 2.164-3.597 2.164zm-.714-5.369c-1.321 1.778-1.483 3.901-.362 4.735 1.123.835 3.11.066 4.43-1.709.647-.87 1.037-1.848 1.097-2.753.059-.881-.202-1.585-.735-1.981-.533-.397-1.28-.444-2.109-.134-.85.318-1.674.973-2.32 1.842zm-8.982.136c-1.512 0-2.979-1.712-3.365-4.018-.198-1.186-.086-2.353.317-3.285.412-.956 1.079-1.556 1.877-1.69.802-.128 1.625.218 2.325.987.684.752 1.169 1.82 1.367 3.005.198 1.186.086 2.353-.317 3.286-.411.956-1.078 1.555-1.877 1.688a1.914 1.914 0 0 1-.327.027zm-.837-8.717c-.096 0-.19.007-.284.023-.694.116-1.28.652-1.65 1.51-.379.88-.484 1.987-.296 3.117.387 2.306 1.884 3.973 3.344 3.742.694-.115 1.28-.652 1.65-1.51.38-.88.484-1.987.296-3.117-.189-1.129-.648-2.141-1.293-2.85-.543-.597-1.162-.915-1.768-.915zm6.793 8.782c-.126 0-.252-.012-.378-.035-.795-.152-1.449-.764-1.84-1.729-.383-.942-.47-2.11-.247-3.292l.149.028-.149-.028c.466-2.462 2.15-4.218 3.777-3.912 1.616.307 2.552 2.558 2.086 5.021-.223 1.181-.73 2.237-1.431 2.975-.604.635-1.29.972-1.967.972zm.936-8.7c-1.352 0-2.7 1.57-3.103 3.7-.214 1.125-.132 2.234.229 3.122.351.866.926 1.415 1.617 1.545.692.132 1.426-.171 2.07-.848.66-.695 1.139-1.698 1.352-2.822.434-2.298-.394-4.392-1.846-4.667a1.676 1.676 0 0 0-.32-.03z"></path></svg>