<svg version="1.1" id="Livello_1" xmlns="http://www.w3.org/2000/svg" x="0" y="0" viewBox="0 0 25 25" xml:space="preserve"><path d="M20.69 7.437c-.23 0-.568-.082-.937-.451a.165.165 0 0 1 0-.234.165.165 0 0 1 .234 0c.242.243.484.346.723.354.233-.007.466-.142.693-.4.944-1.082 1.894-.659 2.522-.247a.165.165 0 1 1-.18.276c-.863-.563-1.486-.506-2.095.189-.289.33-.6.502-.93.513h-.03zm0 1.933c-.23 0-.568-.082-.937-.451a.165.165 0 0 1 0-.234.165.165 0 0 1 .234 0c.242.244.484.342.723.355.233-.008.466-.142.693-.4.944-1.081 1.894-.66 2.522-.247a.165.165 0 1 1-.18.276c-.863-.565-1.486-.506-2.095.188-.289.33-.6.502-.93.513h-.03z"></path><path fill="#1D1D1B" d="M6.868 11.012c-1.728 0-3.133-1.405-3.133-3.133S5.14 4.747 6.868 4.747 10 6.152 10 7.879s-1.405 3.133-3.132 3.133zm0-5.935c-1.545 0-2.802 1.257-2.802 2.802s1.257 2.802 2.802 2.802S9.67 9.424 9.67 7.88 8.413 5.077 6.868 5.077z"></path><path fill="#1D1D1B" d="M16.869 4.04L6.482 2.51c-1.29-.188-2.566.19-3.594 1.078C1.688 4.623 1 6.186 1 7.878c0 1.756.769 3.387 2.047 4.4l-1.323 8.759a1.31 1.31 0 0 0 1.294 1.5h4.554c.401 0 .759-.21.955-.56a1.068 1.068 0 0 0-.02-1.095l-.463-.769a3.042 3.042 0 0 1-.395-1.995l.767-5.13 8.435-1.137c.663-.09 1.164-.717 1.164-1.46v-4.9c0-.728-.493-1.352-1.146-1.45zm-8.794 8.993l-.752 5.036a3.37 3.37 0 0 0 .438 2.213l.463.771c.145.235.15.52.015.762a.756.756 0 0 1-.667.392H3.02a.977.977 0 0 1-.968-1.121l1.294-8.573c.059.04.123.066.183.103.13.08.26.154.394.22a4.476 4.476 0 0 0 1.037.356c.148.031.296.05.446.065.105.011.21.024.316.027.04 0 .08.01.12.01.194 0 .389-.013.583-.039l1.65-.222zm9.61-2.643c0 .58-.378 1.066-.878 1.133L6.38 12.928a4.092 4.092 0 0 1-3.058-.839C2.075 11.143 1.33 9.57 1.33 7.88c0-1.596.647-3.07 1.774-4.04.794-.686 1.745-1.047 2.73-1.047.198 0 .4.015.6.044l10.386 1.53c.492.074.863.557.863 1.124v4.9z"></path></svg>