<svg version="1.1" id="Livello_1" xmlns="http://www.w3.org/2000/svg" x="0" y="0" viewBox="0 0 25 25" xml:space="preserve"><path d="M23.849 11.7a.1.1 0 0 0 .008-.025c.095-.204.143-.422.143-.648 0-.904-.732-1.64-1.632-1.64h-.152c.317-.15.615-.346.87-.603.36-.359.629-.802.78-1.285a3.25 3.25 0 0 0 .134-.91c0-.313-.05-.62-.143-.912a3.112 3.112 0 0 0-2.966-2.205H2.631c-.9 0-1.631.736-1.631 1.64 0 .224.049.444.14.638a1.613 1.613 0 0 0 .8.838c-.346.163-.63.447-.789.808-.1.211-.151.436-.151.67 0 .899.732 1.63 1.631 1.63h.153a3.098 3.098 0 0 0-.872.604 3.053 3.053 0 0 0-.774 1.298 3.036 3.036 0 0 0 .005 1.826c.261.85.86 1.514 1.622 1.878H2.63c-.9 0-1.631.736-1.631 1.64a1.507 1.507 0 0 0 .15.664c.16.365.444.65.79.813a1.61 1.61 0 0 0-.789.808 1.55 1.55 0 0 0-.151.669c0 .9.732 1.632 1.631 1.632h18.26c.828 0 1.608-.325 2.196-.913.36-.36.629-.803.778-1.286a3.2 3.2 0 0 0 .135-.91c0-.311-.05-.62-.143-.911a3.097 3.097 0 0 0-1.638-1.895h.149c.9 0 1.632-.733 1.632-1.632a1.56 1.56 0 0 0-.152-.684 1.628 1.628 0 0 0-.785-.792c.342-.16.621-.44.786-.804zM2.63 9.388a1.323 1.323 0 0 1-1.322-1.322c0-.186.041-.366.123-.54a1.308 1.308 0 0 1 1.2-.782h15.526a.155.155 0 1 0 0-.31H2.63c-.512 0-.976-.297-1.189-.76a.175.175 0 0 0-.013-.037 1.19 1.19 0 0 1-.12-.525c0-.733.593-1.33 1.323-1.33h18.26A2.8 2.8 0 0 1 23.56 5.77c.085.264.129.54.129.82 0 .27-.04.546-.12.82a2.82 2.82 0 0 1-.702 1.157 2.776 2.776 0 0 1-1.977.821H2.632zM23.56 17.6c.085.265.129.54.129.82 0 .27-.04.548-.12.82a2.827 2.827 0 0 1-.702 1.157c-.53.53-1.231.822-1.977.822H2.631a1.323 1.323 0 0 1-1.322-1.322c0-.187.041-.367.123-.54a1.308 1.308 0 0 1 1.2-.782c.003 0 .005-.004.009-.004h15.517a.155.155 0 1 0 0-.31H2.63l-.006.003a1.308 1.308 0 0 1-1.183-.76.119.119 0 0 0-.013-.035 1.21 1.21 0 0 1-.12-.526c0-.733.593-1.33 1.323-1.33H20.89a2.8 2.8 0 0 1 2.67 1.987zm-1.193-5.25H6.84a.155.155 0 0 0 0 .309h15.527c.515 0 .986.302 1.2.769v.002a1.323 1.323 0 0 1-1.2 1.873H4.116a2.781 2.781 0 0 1-2.678-1.97 2.736 2.736 0 0 1 .006-1.681c.128-.42.365-.811.687-1.132a2.787 2.787 0 0 1 1.985-.822h18.252c.73 0 1.322.597 1.322 1.33 0 .187-.04.367-.122.535a.207.207 0 0 0-.01.03 1.302 1.302 0 0 1-1.19.757z"></path></svg>