<svg version="1.1" id="Livello_1" xmlns="http://www.w3.org/2000/svg" x="0" y="0" viewBox="0 0 25 25" xml:space="preserve"><path d="M23.537 5.772h-.65a.463.463 0 0 0-.462.463v.081H2.575v-.081a.464.464 0 0 0-.463-.463h-.649A.463.463 0 0 0 1 6.235v10.684c0 .348.283.631.63.631h.844v1.57c0 .06.048.108.107.108h1.134a.107.107 0 0 0 .107-.108v-.686h17.47v.573c0 .06.047.108.107.108h1.133c.06 0 .108-.048.108-.108V17.55h.73c.347 0 .63-.283.63-.631V6.235a.463.463 0 0 0-.463-.463zM6.443 7.517l-.002.006v5.39H3.709V7.518h2.734zm14.735.006v5.39h-2.732v-5.39c0-.002-.003-.003-.003-.006h2.737l-.002.006zm-2.948 0v5.39h-2.732v-5.39l-.002-.006h2.737l-.003.006zm-2.947 0v5.39h-2.732v-5.39l-.002-.006h2.737l-.003.006zm-2.947 0v5.39H9.604v-5.39c0-.002-.003-.003-.003-.006h2.737l-.002.006zm-2.948 0v5.39H6.656v-5.39l-.002-.006H9.39l-.003.006zm-5.892 7.998h-.864l.862-1.982v1.976l.002.006zm.213-.006v-2.386h2.732v2.392H3.707l.002-.006zm2.947-2.386h2.732v2.392H6.656v-2.392zm2.948 0h2.732v2.392H9.604v-2.392zm2.947 0h2.732v2.392h-2.732v-2.392zm2.947 0h2.732v2.392h-2.732v-2.392zm2.948 0h2.732v2.392h-2.732v-2.392zm2.947.41l.862 1.982h-.862v-1.982zm1.031 1.834L21.393 13V7.523l-.002-.006h1.033v7.856zM2.632 6.532h19.793v.77H2.632v-.77zm.862.985V13l-.919 2.112V7.517h.919zM22.424 18.9h-.918v-.572a.107.107 0 0 0-.107-.108H3.715a.108.108 0 0 0-.108.108v.686h-.918V17.55h19.736v1.35zm1.36-1.98c0 .23-.186.416-.414.416H1.63a.416.416 0 0 1-.415-.416V6.235c0-.137.112-.248.248-.248h.65c.136 0 .247.111.247.248v9.393c0 .008.007.012.008.019a.094.094 0 0 0 .015.036.1.1 0 0 0 .028.03c.006.003.007.01.014.014.007.003.014-.002.022 0 .008.002.013.009.02.009h20.065c.06 0 .108-.048.108-.108V6.234c0-.136.11-.247.248-.247h.649c.137 0 .248.111.248.248v10.684z"></path></svg>