<svg version="1.1" id="Livello_1" xmlns="http://www.w3.org/2000/svg" x="0" y="0" viewBox="0 0 25 25"
    xml:space="preserve">
    <path
        d="M18.887 16.255H2.157a.11.11 0 0 1-.11-.11V6.14c0-.06.05-.11.11-.11h16.73c.061 0 .11.05.11.11v10.004a.11.11 0 0 1-.11.11zm-16.619-.22h16.509V6.25H2.268v9.783z">
    </path>
    <path
        d="M18.418 5.003H2.627C1.73 5.003 1 5.733 1 6.63v9.026c0 .896.73 1.627 1.627 1.627H8.27v.94l-.809.808a.111.111 0 0 0 0 .157.11.11 0 0 0 .08.032h5.964c.029 0 .057-.01.078-.032a.111.111 0 0 0 0-.157l-.84-.84a.108.108 0 0 0-.064-.027v-.881h5.74a1.63 1.63 0 0 0 1.626-1.627V6.63a1.63 1.63 0 0 0-1.627-1.627zM13.238 19H7.807l.62-.62h4.193l.62.62zm-.78-.84H8.49v-.876h3.968v.876zm7.366-2.503c0 .775-.63 1.406-1.406 1.406H2.627a1.408 1.408 0 0 1-1.406-1.406V6.63c0-.775.63-1.406 1.405-1.406h15.792c.775 0 1.406.63 1.406 1.406v9.026zm2.959 4.34c-.67 0-1.215-.546-1.215-1.217v-5.17c0-.67.546-1.216 1.215-1.216.671 0 1.217.546 1.217 1.216v5.171c0 .671-.546 1.217-1.217 1.217zm0-7.383a.996.996 0 0 0-.995.995v5.171a.997.997 0 0 0 1.991 0v-5.17a.996.996 0 0 0-.996-.995z">
    </path>
    <path
        d="M22.783 17.146c-.38 0-.69-.303-.69-.676s.31-.677.69-.677c.381 0 .691.303.691.677s-.31.676-.69.676zm0-1.133c-.258 0-.469.205-.469.457s.21.456.47.456c.259 0 .47-.205.47-.456s-.211-.456-.47-.456zm.521-1.521h-1.04a.11.11 0 0 1-.11-.11.11.11 0 0 1 .11-.11h1.04a.11.11 0 1 1 0 .22zm.04 3.883h-1.121c-.061 0-.11-.05-.11-.11s.049-.11.11-.11h1.12c.062 0 .111.048.111.11s-.049.11-.11.11z">
    </path>
</svg>