<svg version="1.1" id="Livello_1" xmlns="http://www.w3.org/2000/svg" x="0" y="0" viewBox="0 0 25 25"
    xml:space="preserve">
    <path
        d="M21.737 8.338a.133.133 0 0 1-.094-.226c.196-.196.291-.392.285-.583-.006-.187-.115-.374-.321-.555-.87-.761-.53-1.521-.2-2.027a.132.132 0 1 1 .222.145c-.452.69-.407 1.194.152 1.682.264.232.403.483.412.746.008.267-.113.529-.362.779a.133.133 0 0 1-.094.039zm1.553 0a.133.133 0 0 1-.093-.226c.194-.196.29-.391.284-.582-.006-.187-.114-.374-.322-.556-.87-.76-.53-1.521-.198-2.027a.132.132 0 1 1 .222.145c-.453.69-.407 1.194.15 1.682.266.232.404.484.413.747.006.184-.052.468-.363.778a.13.13 0 0 1-.093.039z">
    </path>
    <path fill="#1D1D1B"
        d="M23.924 9.523a.574.574 0 0 0-.506-.298H20.97a.569.569 0 0 0-.429.199l-3.602 4.017a8.314 8.314 0 0 0-.556-.717V5.167a2.974 2.974 0 0 0-2.97-2.971h-.177V1.77a.586.586 0 0 0-.588-.581H6.83a.586.586 0 0 0-.589.58v.427h-.088a2.974 2.974 0 0 0-2.97 2.97v7.528A8.762 8.762 0 0 0 1 18.482v3.736h.013a1.72 1.72 0 0 0 1.71 1.593h14.098a1.72 1.72 0 0 0 1.71-1.593h.013v-3.045l5.37-9.064c.11-.182.115-.4.01-.586zm-7.103 14.023H2.723a1.46 1.46 0 0 1-1.452-1.327h17.002a1.46 1.46 0 0 1-1.452 1.327zM6.507 1.77a.32.32 0 0 1 .324-.316h5.816a.32.32 0 0 1 .323.316v1.118a.32.32 0 0 1-.323.315H6.83a.32.32 0 0 1-.324-.315V1.77zM3.45 5.167A2.708 2.708 0 0 1 6.154 2.46h.088v.427c0 .32.264.58.589.58h5.816c.324 0 .588-.26.588-.58V2.46h.176a2.708 2.708 0 0 1 2.706 2.706v7.261c-.023-.024-.052-.043-.076-.068a8.762 8.762 0 0 0-.896-.8c-.049-.038-.098-.073-.147-.11a8.827 8.827 0 0 0-1.02-.657c-.045-.025-.092-.047-.138-.07a8.784 8.784 0 0 0-1.138-.505c-.032-.011-.065-.02-.097-.03a8.662 8.662 0 0 0-1.157-.311v-.902c0-.944-.765-1.713-1.705-1.713-.945 0-1.714.769-1.714 1.714v.92a8.54 8.54 0 0 0-1.236.339c-.144.052-.278.127-.419.186-.287.121-.574.24-.847.392-.16.09-.308.2-.464.3-.237.15-.475.299-.697.473-.154.12-.293.26-.44.39-.158.143-.329.271-.477.425V5.167zm4.845 4.67v-.861c0-.799.65-1.449 1.449-1.449.794 0 1.44.65 1.44 1.449v.848c-.12-.02-.246-.03-.37-.045-.082-.01-.16-.026-.243-.033-.011-.001-.024 0-.035-.002h-.01c-.163-.014-.329-.018-.495-.022-.087-.003-.17-.012-.258-.012-.059 0-.116.007-.174.008a8.941 8.941 0 0 0-.603.03c-.104.009-.204.026-.307.039-.131.016-.265.028-.394.05zm9.985 12.116H1.265v-3.471a8.5 8.5 0 0 1 6.922-8.355 8.424 8.424 0 0 1 4.476.357 8.54 8.54 0 0 1 3.487 2.373l.004.005a8.426 8.426 0 0 1 2.125 5.62v3.471zm5.409-11.98l-5.144 8.68v-.171c0-.437-.033-.87-.095-1.295-.02-.137-.063-.268-.09-.403-.056-.286-.108-.573-.192-.85-.047-.156-.118-.304-.174-.457-.091-.248-.175-.5-.288-.74-.073-.153-.169-.296-.251-.445-.116-.213-.221-.43-.356-.634l3.642-4.06a.307.307 0 0 1 .23-.107h2.448c.115 0 .218.06.275.162a.313.313 0 0 1-.005.32z">
    </path>
</svg>