<svg version="1.1" id="Livello_1" xmlns="http://www.w3.org/2000/svg" x="0" y="0" viewBox="0 0 25 25" xml:space="preserve"><path d="M18.249 4.398a.912.912 0 0 1-.648-.268.918.918 0 0 1 0-1.295.918.918 0 0 1 1.564.648.907.907 0 0 1-.269.647.906.906 0 0 1-.647.268zm0-1.535a.62.62 0 0 0-.437 1.057.634.634 0 0 0 .875 0h.001a.618.618 0 0 0-.44-1.057zM15.51 4.397a.912.912 0 0 1-.915-.915.91.91 0 0 1 .268-.647.918.918 0 0 1 1.295 0 .91.91 0 0 1 .268.647.912.912 0 0 1-.916.915zm0-1.534a.62.62 0 1 0 .438 1.057.616.616 0 0 0-.438-1.057z"></path><path d="M20.174 1H4.827c-.702 0-1.273.572-1.273 1.274v21.578c0 .082.066.148.148.148h17.596a.148.148 0 0 0 .148-.148V2.273c0-.702-.57-1.273-1.273-1.273zM3.85 5.96h17.3v16.047H3.85V5.96zm.977-4.664h15.346c.54 0 .977.439.977.978v3.39H3.85v-3.39c0-.54.438-.978.977-.978zM3.85 23.704v-1.401h17.3v1.401H3.85z"></path><path d="M11.143 4.733H5.592a.148.148 0 0 1-.148-.148v-2.01c0-.08.066-.147.148-.147h5.55c.082 0 .149.066.149.148v2.009a.148.148 0 0 1-.148.148zM5.74 4.437h5.255V2.724H5.74v1.713z"></path></svg>