<svg version="1.1" id="Livello_1" xmlns="http://www.w3.org/2000/svg" x="0" y="0" viewBox="0 0 25 25" xml:space="preserve"><path d="M15.893 17.195H3.187a.893.893 0 0 1-.892-.892V7.855c0-.492.4-.892.892-.892h12.706c.492 0 .892.4.892.892v8.448c0 .492-.4.892-.892.892zM3.187 7.225a.63.63 0 0 0-.63.63v8.448a.63.63 0 0 0 .63.629h12.706a.63.63 0 0 0 .63-.629V7.855a.63.63 0 0 0-.63-.63H3.187zm15.474 9.97a.643.643 0 0 1-.642-.643V7.606a.643.643 0 0 1 1.285 0v8.946a.643.643 0 0 1-.643.643zm0-9.97a.38.38 0 0 0-.38.38v8.947a.38.38 0 0 0 .76 0V7.607a.38.38 0 0 0-.38-.38zm3.674 3.872a.987.987 0 1 1 .986-.986.987.987 0 0 1-.986.986zm0-1.709a.724.724 0 1 0 0 1.448.724.724 0 0 0 0-1.448z"></path><path d="M21.695 4.764H3.305A2.307 2.307 0 0 0 1 7.068V17.09a2.308 2.308 0 0 0 2.305 2.306h.94v.71a.13.13 0 0 0 .13.131h2.622a.131.131 0 0 0 .13-.131v-.71h10.745v.71a.13.13 0 0 0 .131.131h2.62a.13.13 0 0 0 .132-.131v-.71h.94A2.308 2.308 0 0 0 24 17.089V7.07a2.307 2.307 0 0 0-2.305-2.305zm-14.83 15.21H4.507v-.58h2.358v.58zm13.628 0h-2.358v-.58h2.358v.58zm1.202-.842H3.305a2.045 2.045 0 0 1-2.042-2.043V7.07c0-1.127.916-2.042 2.042-2.042h18.39c1.126 0 2.042.915 2.042 2.042v.903h-1.57A1.71 1.71 0 0 0 20.46 9.68v4.799c0 .942.765 1.707 1.707 1.707h1.57v.903a2.045 2.045 0 0 1-2.042 2.043zm2.042-3.209h-1.57a1.447 1.447 0 0 1-1.445-1.444v-4.8c0-.796.649-1.444 1.445-1.444h1.57v7.688z"></path></svg>