<svg version="1.1" id="Livello_1" xmlns="http://www.w3.org/2000/svg" x="0" y="0" viewBox="0 0 25 25" xml:space="preserve"><path fill="#1D1D1B" d="M17.774 2.034c-.24 0-.494.02-.782.06-.012-.014-.022-.028-.036-.042a3.6 3.6 0 0 0-5.085 0c-.127.126-.22.256-.311.38-1.397-.685-3.129-.462-4.288.698a3.749 3.749 0 0 0-.655 4.4l-1.04 1.047.245 1.528-1.466-.227-.08-.004-.096.103.237 1.534-1.467-.227-.077-.004-.1.1.246 1.53-1.661-.249.292 1.878.945.945L8.76 9.328a3.733 3.733 0 0 0 3.147-.395v13.421c0 .908.739 1.646 1.646 1.646h8.444c.908 0 1.646-.738 1.646-1.646V7.902a5.875 5.875 0 0 0-5.868-5.868zm-5.707.214a3.325 3.325 0 0 1 4.588-.1A5.823 5.823 0 0 0 13.28 4.16a3.727 3.727 0 0 0-.716-1.031c-.23-.23-.487-.41-.754-.567.078-.105.154-.212.257-.315zm-3.298 6.79l-.082-.03-6.092 6.084-.685-.685-.22-1.415 1.662.248-.265-1.655 1.663.258-.258-1.663 1.664.258-.284-1.766 1.09-1.096-.053-.092a3.469 3.469 0 0 1 .56-4.158 3.44 3.44 0 0 1 2.45-1.014c.926 0 1.795.36 2.449 1.014a3.434 3.434 0 0 1 .527 4.197 3.307 3.307 0 0 1-.702-.48.833.833 0 0 0-.068-.055c-.02-.015-.04-.03-.058-.047a3.286 3.286 0 0 1-.82-1.448.794.794 0 0 0 .16-.085c.03-.019.059-.036.086-.059a.8.8 0 0 0 .194-.236c.018-.033.038-.064.052-.1a.788.788 0 0 0 .058-.286.81.81 0 0 0-.063-.312.819.819 0 0 0-.124-.195c-.014-.016-.022-.038-.036-.053a.809.809 0 0 0-.534-.257c-.004 0-.005-.005-.009-.005l-.007.002c-.017-.001-.032-.01-.05-.01a.83.83 0 0 0-.765 1.147.822.822 0 0 0 .153.225c.009.01.013.024.023.034a.83.83 0 0 0 .578.243 3.57 3.57 0 0 0 .908 1.59c.027.028.057.051.087.074a.643.643 0 0 1 .049.038v.001c.226.204.478.37.743.51a3.492 3.492 0 0 1-.382.465 3.46 3.46 0 0 1-3.599.814zm1.693-4.509c.014-.035.036-.066.058-.098.012-.019.023-.039.038-.056a.56.56 0 0 1 .125-.105l.008-.006a.575.575 0 0 1 .17-.067c-.039.352-.025.707.042 1.06a.567.567 0 0 1-.337-.173c-.012-.012-.02-.028-.03-.042a.524.524 0 0 1-.073-.116.531.531 0 0 1-.041-.2c0-.07.016-.135.04-.197zm.676-.322a.565.565 0 0 1 .259.184c.008.01.014.022.022.033a.53.53 0 0 1 .1.302.53.53 0 0 1-.086.276.549.549 0 0 1-.255.228 3.295 3.295 0 0 1-.04-1.023zm12.227 18.147a1.37 1.37 0 0 1-1.369 1.369h-8.444a1.37 1.37 0 0 1-1.368-1.369V8.75a3.578 3.578 0 0 0 .825-.872 3.604 3.604 0 0 0 1.414.301c.933 0 1.85-.36 2.533-1.042.202-.202.374-.43.52-.676.05-.084.08-.182.122-.27.076-.157.161-.307.216-.478a1.193 1.193 0 0 0-.04-2.383.652.652 0 0 0-.085.007l-.03.004a1.185 1.185 0 0 0-1.077 1.18c0 .151.032.293.083.426.018.045.049.082.071.124.044.082.088.163.15.232.037.042.083.072.125.109.065.055.129.107.204.147.053.029.109.045.166.066.046.016.087.043.136.053-.049.144-.11.278-.174.41-.04.079-.068.166-.113.24a3.12 3.12 0 0 1-.853.939c-.066.048-.137.085-.206.128-.07.044-.139.092-.212.13-.1.052-.205.092-.31.134-.045.017-.088.04-.134.056-.131.045-.266.08-.402.107l-.058.015c-.154.03-.31.048-.467.055h-.007a3.35 3.35 0 0 1-1.435-.253 3.707 3.707 0 0 0 .513-1.864 3.72 3.72 0 0 0-.255-1.341 5.555 5.555 0 0 1 3.549-2.056 5.52 5.52 0 0 1 .821-.067 5.597 5.597 0 0 1 5.59 5.59v14.453zM17.35 5.321c-.058-.03-.107-.072-.157-.113-.033-.028-.07-.051-.099-.083a.938.938 0 0 1-.116-.18c-.017-.032-.042-.06-.055-.095a.9.9 0 0 1-.064-.328.92.92 0 0 1 .06-.321c.013-.033.035-.059.05-.09a.907.907 0 0 1 .113-.18c.027-.03.06-.053.091-.08a.895.895 0 0 1 .154-.116c.038-.022.081-.034.122-.05a.919.919 0 0 1 .13-.037c.168.571.18 1.172.033 1.755a.92.92 0 0 1-.131-.033c-.044-.016-.09-.027-.131-.049zm.501-1.698a.908.908 0 0 1 .837.899c0 .46-.347.824-.8.887a3.562 3.562 0 0 0-.037-1.786z"></path><path fill="#1D1D1B" d="M21.584 15.26h-7.62a.138.138 0 0 0-.138.139c0 .076.062.138.139.138h7.619a.138.138 0 0 0 .138-.139.138.138 0 0 0-.138-.138zm-1.647 3.917h-4.325a.138.138 0 1 0 0 .277h4.325a.139.139 0 1 0-.001-.278zm-4.325-7.557h4.325a.139.139 0 1 0 0-.277h-4.325a.139.139 0 1 0 0 .277z"></path></svg>