<svg version="1.1" id="Livello_1" xmlns="http://www.w3.org/2000/svg" x="0" y="0" viewBox="0 0 25 25" xml:space="preserve"><path d="M22.201 5.641a.144.144 0 0 0-.144-.144h-9.426a.144.144 0 0 0-.145.144v1.187c0 .025.016.043.027.064l1.864 14.663c.009.072.07.126.143.126h.763v1.661c0 .363.295.658.658.658h2.78a.658.658 0 0 0 .658-.658v-1.66h.794a.145.145 0 0 0 .143-.127l1.858-14.66c.012-.022.027-.042.027-.067V5.64zm-.288.144v.873h-9.138v-.873h9.138zm-2.822 17.557a.37.37 0 0 1-.37.37h-2.78a.37.37 0 0 1-.37-.37v-1.66h3.52v1.66zm.955-1.949h-5.399L12.814 6.972h9.06l-1.828 14.421zM11.234 10.33c-.263-1.167-.513-2.271-.513-3.379 0-.297.03-.611.091-.961.101-.582.28-1.17.451-1.738.193-.64.392-1.302.492-1.972 0-.003-.004-.006-.003-.01 0-.004.004-.007.004-.01V1.143A.144.144 0 0 0 11.612 1H3.008a.144.144 0 0 0-.145.144V2.26c0 .004.005.007.005.011 0 .004-.004.007-.003.01.1.67.299 1.332.491 1.972.172.568.35 1.156.451 1.738.062.35.091.664.091.961 0 1.108-.249 2.212-.513 3.38-.288 1.279-.586 2.6-.586 4.05 0 5.684 2.214 9.507 2.236 9.546.026.044.073.07.124.07H9.46a.144.144 0 0 0 .13-.08c.022-.045 2.232-4.61 2.232-9.535 0-1.45-.299-2.772-.588-4.051zM3.152 1.289h8.316v.827H3.152v-.827zm.481 2.88c-.174-.576-.353-1.17-.456-1.765h8.266c-.103.595-.282 1.189-.456 1.765-.163.539-.33 1.094-.437 1.653H4.07c-.107-.559-.275-1.114-.437-1.653zM9.37 23.71H5.244c-.297-.542-2.157-4.15-2.157-9.327 0-1.419.295-2.725.58-3.988.267-1.184.52-2.303.52-3.443 0-.264-.022-.541-.068-.842h6.382a5.59 5.59 0 0 0-.068.842c0 1.14.253 2.259.52 3.443.285 1.263.58 2.569.58 3.988 0 4.5-1.871 8.698-2.164 9.327z"></path></svg>