<svg version="1.1" id="Livello_1" xmlns="http://www.w3.org/2000/svg" x="0" y="0" viewBox="0 0 25 25"
    xml:space="preserve">
    <path fill="#1D1D1B"
        d="M20.294 20.9h-1.442a.898.898 0 0 1-.897-.898v-.16h3.235v.16a.898.898 0 0 1-.896.897zm-1.998-.738a.58.58 0 0 0 .556.418h1.443a.577.577 0 0 0 .554-.418h-2.553z">
    </path>
    <path fill="#1D1D1B"
        d="M23.032 11.15c.564-.182.968-.695.968-1.299 0-.749-.611-1.356-1.365-1.364l-.06-.398a2.806 2.806 0 0 0-2.768-2.39h-.228v-.588c0-.557-.453-1.01-1.01-1.01h-4.133c-.557 0-1.01.453-1.01 1.01V5.7H11.75v-.59c0-.556-.454-1.01-1.01-1.01H6.606c-.557 0-1.01.454-1.01 1.01v.59h-.478A2.826 2.826 0 0 0 2.34 8.088l-1.31 8.854a2.812 2.812 0 0 0 2.778 3.223h.21a.884.884 0 0 0 .863.734h1.443c.436 0 .784-.32.863-.734h13.93a2.816 2.816 0 0 0 2.779-3.223l-.864-5.792zm.649-1.299c0 .448-.283.843-.693.996l-.305-2.042c.556.032.998.489.998 1.046zm-9.936-4.74c0-.382.31-.691.691-.691h4.133c.381 0 .691.31.691.69v.59h-5.515v-.59zm-7.83 0c0-.382.31-.691.692-.691h4.132c.382 0 .692.31.692.69v.59H5.916v-.59zm.41 15.47H4.88a.577.577 0 0 1-.553-.416h2.549a.577.577 0 0 1-.553.415zm16.673-1.598a2.48 2.48 0 0 1-1.881.863H7.22v-.003H3.984v.003h-.176a2.482 2.482 0 0 1-1.881-.863 2.49 2.49 0 0 1-.582-1.994l1.31-8.854A2.505 2.505 0 0 1 5.12 6.02h14.688c1.226 0 2.28.91 2.452 2.116l1.32 8.854a2.492 2.492 0 0 1-.58 1.994z">
    </path>
</svg>