<svg version="1.1" id="Livello_1" xmlns="http://www.w3.org/2000/svg" x="0" y="0" viewBox="0 0 25 25" xml:space="preserve"><path fill="#1D1D1B" d="M18.354 11.06c-1.77-1.027-3.794-1.57-5.854-1.57s-4.084.543-5.854 1.57l-.17-.29c1.822-1.058 3.905-1.617 6.024-1.617s4.202.559 6.022 1.616l-.168.29zm-2.971 3.915c-1.723-1.022-4.044-1.021-5.766 0l-.172-.289c.913-.541 1.97-.828 3.055-.828s2.142.287 3.056.828l-.173.29zm-2.885 5.581c-.903 0-1.637-.735-1.637-1.637s.734-1.637 1.637-1.637a1.638 1.638 0 0 1 0 3.274zm0-2.937a1.301 1.301 0 1 0 1.3 1.3c0-.716-.583-1.3-1.3-1.3zM3.668 7.148l-.168-.29a17.955 17.955 0 0 1 9-2.414c3.175 0 6.287.834 9 2.413l-.168.29A17.577 17.577 0 0 0 12.5 4.782c-3.107 0-6.16.818-8.832 2.367z"></path></svg>